<svg width="16" height="16" version="1.0" viewBox="0 0 16 16" xmlns="http://www.w3.org/2000/svg"><g transform="matrix(0.05333333,0,0,-0.05333333,-8.9728808,16.481355)" style="fill:#000000;stroke:none"><path d="m 238.24153,294.02543 c 0,-8 5,-15 10,-15 17,0 12,-116.00001 -5,-130.00001 -8,-7 -15,-21 -15,-31 0,-15 7,-18.999996 35,-18.999996 35,0 35,0 35,-45 0,-38 3,-45.0000003 20,-45.0000003 17,0 20,7.0000003 20,45.0000003 0,45 0,45 35,45 28,0 35,3.999996 35,18.999996 0,10 -7,24 -15,31 -17,14 -22,130.00001 -5,130.00001 6,0 10,7 10,15 0,12 -16,15 -80,15 -64,0 -80,-3 -80,-15 z" /></g></svg>
