<svg width="16" height="16" version="1.0" viewBox="0 0 16 16" xmlns="http://www.w3.org/2000/svg"><g transform="matrix(0.05333333,0,0,-0.05333333,-1.5999999,17.599999)" style="fill:#000000;stroke:none"><path d="m 100,315 c 0,-8 5,-15 10,-15 6,0 10,-10 10,-23 0,-15 24,-46 68,-90 37,-37 71,-67 75,-67 13,0 7,37 -8,50 -17,14 -22,130 -5,130 6,0 10,7 10,15 0,12 -16,15 -80,15 -64,0 -80,-3 -80,-15 z" /><path d="m 30,288 c 0,-7 20,-33 46,-59 39,-40 43,-47 30,-59 -9,-7 -16,-21 -16,-31 0,-15 7,-19 35,-19 35,0 35,0 35,-45 0,-38 3,-45 20,-45 16,0 20,7 20,37 v 37 L 238,67 C 277,29 300,20 300,43 300,59 59,300 42,300 36,300 30,295 30,288 Z" /></g></svg>
