<?xml version="1.0" encoding="utf-8"?>
<!-- Generator: Adobe Illustrator 15.0.0, SVG Export Plug-In . SVG Version: 6.00 Build 0)  -->
<!DOCTYPE svg PUBLIC "-//W3C//DTD SVG 1.1//EN" "http://www.w3.org/Graphics/SVG/1.1/DTD/svg11.dtd">
<svg version="1.1" id="Ebene_1" xmlns="http://www.w3.org/2000/svg" xmlns:xlink="http://www.w3.org/1999/xlink" x="0px" y="0px"
	 width="20px" height="20px" viewBox="0 0 20 20" enable-background="new 0 0 20 20" xml:space="preserve">
<g>
	<defs>
		<rect id="SVGID_1_" width="20" height="20"/>
	</defs>
	<clipPath id="SVGID_2_">
		<use xlink:href="#SVGID_1_"  overflow="visible"/>
	</clipPath>
	<g clip-path="url(#SVGID_2_)">
		<defs>
			<rect id="SVGID_3_" width="20" height="20"/>
		</defs>
		<clipPath id="SVGID_4_">
			<use xlink:href="#SVGID_3_"  overflow="visible"/>
		</clipPath>
		<g clip-path="url(#SVGID_4_)">
			<defs>
				<rect id="SVGID_5_" width="20" height="20"/>
			</defs>
			<clipPath id="SVGID_6_">
				<use xlink:href="#SVGID_5_"  overflow="visible"/>
			</clipPath>
			<g clip-path="url(#SVGID_6_)">
				<defs>
					<rect id="SVGID_7_" x="1.333" y="1.333" width="17.333" height="18.667"/>
				</defs>
				<clipPath id="SVGID_8_">
					<use xlink:href="#SVGID_7_"  overflow="visible"/>
				</clipPath>
				<path clip-path="url(#SVGID_8_)" fill="none" stroke="#878787" stroke-width="1.875" stroke-miterlimit="10" d="M17.089,10.833
					c0,3.917-3.171,7.088-7.089,7.088c-3.916,0-7.089-3.172-7.089-7.088c0-3.916,3.173-7.088,7.089-7.088
					C13.918,3.746,17.089,6.917,17.089,10.833z"/>
			</g>
			<g clip-path="url(#SVGID_6_)">
				<defs>
					<rect id="SVGID_9_" x="1.333" y="1.333" width="17.333" height="17.333"/>
				</defs>
				<clipPath id="SVGID_10_">
					<use xlink:href="#SVGID_9_"  overflow="visible"/>
				</clipPath>
				<path clip-path="url(#SVGID_10_)" fill="none" stroke="#FFFFFF" stroke-width="1.875" stroke-miterlimit="10" d="M17.089,10
					c0,3.917-3.171,7.089-7.089,7.089c-3.916,0-7.089-3.172-7.089-7.089c0-3.916,3.173-7.088,7.089-7.088
					C13.918,2.912,17.089,6.084,17.089,10z"/>
			</g>
		</g>
	</g>
</g>
</svg>
