<?xml version="1.0" encoding="utf-8"?>
<!-- Generator: Adobe Illustrator 15.0.0, SVG Export Plug-In . SVG Version: 6.00 Build 0)  -->
<!DOCTYPE svg PUBLIC "-//W3C//DTD SVG 1.1//EN" "http://www.w3.org/Graphics/SVG/1.1/DTD/svg11.dtd">
<svg version="1.1" id="Ebene_1" xmlns="http://www.w3.org/2000/svg" xmlns:xlink="http://www.w3.org/1999/xlink" x="0px" y="0px"
	 width="20px" height="20px" viewBox="0 0 20 20" enable-background="new 0 0 20 20" xml:space="preserve">
<g>
	<defs>
		<rect id="SVGID_1_" x="0" width="20" height="20"/>
	</defs>
	<clipPath id="SVGID_2_">
		<use xlink:href="#SVGID_1_"  overflow="visible"/>
	</clipPath>
	<g clip-path="url(#SVGID_2_)">
		<defs>
			<rect id="SVGID_3_" x="0" width="20" height="20"/>
		</defs>
		<clipPath id="SVGID_4_">
			<use xlink:href="#SVGID_3_"  overflow="visible"/>
		</clipPath>
		<g clip-path="url(#SVGID_4_)">
			<defs>
				<rect id="SVGID_5_" x="0" width="20" height="20"/>
			</defs>
			<clipPath id="SVGID_6_">
				<use xlink:href="#SVGID_5_"  overflow="visible"/>
			</clipPath>
			<g clip-path="url(#SVGID_6_)">
				<defs>
					<rect id="SVGID_7_" x="1.334" y="4" width="17.333" height="14.665"/>
				</defs>
				<clipPath id="SVGID_8_">
					<use xlink:href="#SVGID_7_"  overflow="visible"/>
				</clipPath>
				<path clip-path="url(#SVGID_8_)" fill="none" stroke="#FFFFFF" stroke-width="1.5" stroke-miterlimit="8" d="M2.875,16.834
					c0,0.109,0.088,0.196,0.198,0.196h13.854c0.109,0,0.198-0.087,0.198-0.196V6.417c0-0.11-0.089-0.198-0.198-0.198H3.073
					c-0.109,0-0.198,0.088-0.198,0.198V16.834z"/>
			</g>
			<g clip-path="url(#SVGID_6_)">
				<defs>
					<rect id="SVGID_9_" x="2.667" y="5.333" width="14.667" height="4"/>
				</defs>
				<clipPath id="SVGID_10_">
					<use xlink:href="#SVGID_9_"  overflow="visible"/>
				</clipPath>
				<rect x="2.875" y="6.219" clip-path="url(#SVGID_10_)" fill="#FFFFFF" width="14.25" height="2.812"/>
			</g>
			<g clip-path="url(#SVGID_6_)">
				<defs>
					<rect id="SVGID_11_" x="4" y="2.667" width="2.667" height="4"/>
				</defs>
				<clipPath id="SVGID_12_">
					<use xlink:href="#SVGID_11_"  overflow="visible"/>
				</clipPath>
				<rect x="5.094" y="3.531" clip-path="url(#SVGID_12_)" fill="#FFFFFF" width="1.109" height="2.437"/>
			</g>
			<g clip-path="url(#SVGID_6_)">
				<defs>
					<rect id="SVGID_13_" x="13.333" y="2.667" width="2.667" height="4"/>
				</defs>
				<clipPath id="SVGID_14_">
					<use xlink:href="#SVGID_13_"  overflow="visible"/>
				</clipPath>
				<rect x="13.798" y="3.531" clip-path="url(#SVGID_14_)" fill="#FFFFFF" width="1.108" height="2.437"/>
			</g>
			<g clip-path="url(#SVGID_6_)">
				<defs>
					<rect id="SVGID_15_" x="1.334" y="4" width="17.333" height="13.333"/>
				</defs>
				<clipPath id="SVGID_16_">
					<use xlink:href="#SVGID_15_"  overflow="visible"/>
				</clipPath>
				<path clip-path="url(#SVGID_16_)" fill="none" stroke="#8F9090" stroke-width="1.5" stroke-miterlimit="8" d="M2.875,15.74
					c0,0.109,0.088,0.197,0.198,0.197h13.854c0.109,0,0.198-0.088,0.198-0.197V5.323c0-0.109-0.089-0.197-0.198-0.197H3.073
					c-0.109,0-0.198,0.088-0.198,0.197V15.74z"/>
			</g>
			<g clip-path="url(#SVGID_6_)">
				<defs>
					<rect id="SVGID_17_" x="2.667" y="4" width="14.667" height="4"/>
				</defs>
				<clipPath id="SVGID_18_">
					<use xlink:href="#SVGID_17_"  overflow="visible"/>
				</clipPath>
				<rect x="2.875" y="5.125" clip-path="url(#SVGID_18_)" fill="#8F9090" width="14.25" height="2.813"/>
			</g>
			<g clip-path="url(#SVGID_6_)">
				<defs>
					<rect id="SVGID_19_" x="4" y="1.333" width="2.667" height="4"/>
				</defs>
				<clipPath id="SVGID_20_">
					<use xlink:href="#SVGID_19_"  overflow="visible"/>
				</clipPath>
				<rect x="5.094" y="2.438" clip-path="url(#SVGID_20_)" fill="#8F9090" width="1.109" height="2.437"/>
			</g>
			<g clip-path="url(#SVGID_6_)">
				<defs>
					<rect id="SVGID_21_" x="13.333" y="1.333" width="2.667" height="4"/>
				</defs>
				<clipPath id="SVGID_22_">
					<use xlink:href="#SVGID_21_"  overflow="visible"/>
				</clipPath>
				<rect x="13.798" y="2.438" clip-path="url(#SVGID_22_)" fill="#8F9090" width="1.108" height="2.437"/>
			</g>
		</g>
	</g>
</g>
</svg>
