<?xml version="1.0" encoding="utf-8"?>
<!-- Generator: Adobe Illustrator 15.0.2, SVG Export Plug-In . SVG Version: 6.00 Build 0)  -->
<!DOCTYPE svg PUBLIC "-//W3C//DTD SVG 1.1//EN" "http://www.w3.org/Graphics/SVG/1.1/DTD/svg11.dtd">
<svg version="1.1" id="Ebene_1" xmlns="http://www.w3.org/2000/svg" xmlns:xlink="http://www.w3.org/1999/xlink" x="0px" y="0px"
	 width="20px" height="20px" viewBox="0 0 20 20" enable-background="new 0 0 20 20" xml:space="preserve">
<g>
	<linearGradient id="SVGID_1_" gradientUnits="userSpaceOnUse" x1="10.0005" y1="16.9727" x2="10.0005" y2="3.0278">
		<stop  offset="0" style="stop-color:#B0B0B0;stop-opacity:0.5"/>
		<stop  offset="0.3982" style="stop-color:#D5D4D4;stop-opacity:0.3009"/>
		<stop  offset="0.7873" style="stop-color:#F4F3F4;stop-opacity:0.1063"/>
		<stop  offset="1" style="stop-color:#FFFFFF;stop-opacity:0"/>
	</linearGradient>
	<path fill="url(#SVGID_1_)" d="M3.027,15.973c0,0.553,0.448,1,1,1h11.945c0.553,0,1-0.447,1-1V4.027c0-0.552-0.447-1-1-1H4.027
		c-0.552,0-1,0.448-1,1V15.973z"/>
	<path fill="none" stroke="#B0B0B0" stroke-width="0.75" stroke-miterlimit="10" d="M3.027,15.973c0,0.553,0.448,1,1,1h11.945
		c0.553,0,1-0.447,1-1V4.027c0-0.552-0.447-1-1-1H4.027c-0.552,0-1,0.448-1,1V15.973z"/>
</g>
</svg>
