<?xml version="1.0" encoding="utf-8"?>
<!-- Generator: Adobe Illustrator 15.0.0, SVG Export Plug-In . SVG Version: 6.00 Build 0)  -->
<!DOCTYPE svg PUBLIC "-//W3C//DTD SVG 1.1//EN" "http://www.w3.org/Graphics/SVG/1.1/DTD/svg11.dtd">
<svg version="1.1" id="Ebene_1" xmlns="http://www.w3.org/2000/svg" xmlns:xlink="http://www.w3.org/1999/xlink" x="0px" y="0px"
	 width="20px" height="20px" viewBox="0 0 20 20" enable-background="new 0 0 20 20" xml:space="preserve">
<g>
	<defs>
		<rect id="SVGID_1_" x="0" y="0" width="20" height="20"/>
	</defs>
	<clipPath id="SVGID_2_">
		<use xlink:href="#SVGID_1_"  overflow="visible"/>
	</clipPath>
	<g clip-path="url(#SVGID_2_)">
		<defs>
			<rect id="SVGID_3_" x="0" y="0" width="20" height="20"/>
		</defs>
		<clipPath id="SVGID_4_">
			<use xlink:href="#SVGID_3_"  overflow="visible"/>
		</clipPath>
		<g clip-path="url(#SVGID_4_)">
			<defs>
				<rect id="SVGID_5_" x="0" y="0" width="20" height="20"/>
			</defs>
			<clipPath id="SVGID_6_">
				<use xlink:href="#SVGID_5_"  overflow="visible"/>
			</clipPath>
			<g clip-path="url(#SVGID_6_)">
				<defs>
					<rect id="SVGID_7_" x="2.667" y="2.667" width="17.333" height="14.667"/>
				</defs>
				<clipPath id="SVGID_8_">
					<use xlink:href="#SVGID_7_"  overflow="visible"/>
				</clipPath>
				<path clip-path="url(#SVGID_8_)" fill="#878787" d="M10.506,16.761c0,0,0.146-0.402,0.317-0.765
					c2.761-5.943,6.308-9.86,7.876-11.636c1.275-1.439,0.775-1.215,0.214-0.85c-2.303,1.5-6.605,6.301-8.25,7.968
					c-0.302,0.309-0.995,1.032-1.151,1.032c-0.173,0-0.76-0.271-1.099-0.47c-1.281-0.749-2.511-1.483-3.281-1.76
					C3.49,9.688,3.954,10.25,4.048,10.438c0.292,0.589,4.255,3.762,5.567,5.262C10.021,16.162,10.506,16.761,10.506,16.761"/>
			</g>
			<g clip-path="url(#SVGID_6_)">
				<defs>
					<rect id="SVGID_9_" x="2.667" y="2.667" width="17.333" height="16"/>
				</defs>
				<clipPath id="SVGID_10_">
					<use xlink:href="#SVGID_9_"  overflow="visible"/>
				</clipPath>
				<path clip-path="url(#SVGID_10_)" fill="none" stroke="#878787" stroke-width="0.5625" stroke-miterlimit="10" d="
					M10.506,16.761c0,0,0.146-0.402,0.317-0.765c2.761-5.943,6.308-9.86,7.876-11.636c1.275-1.439,0.775-1.215,0.214-0.85
					c-2.303,1.5-6.605,6.301-8.25,7.968c-0.302,0.309-0.995,1.032-1.151,1.032c-0.173,0-0.76-0.271-1.099-0.47
					c-1.281-0.749-2.511-1.483-3.281-1.76C3.49,9.688,3.954,10.25,4.048,10.438c0.292,0.589,4.255,3.762,5.567,5.262
					C10.021,16.162,10.506,16.761,10.506,16.761z"/>
			</g>
			<g clip-path="url(#SVGID_6_)">
				<defs>
					<rect id="SVGID_11_" x="2.667" y="1.333" width="17.333" height="14.667"/>
				</defs>
				<clipPath id="SVGID_12_">
					<use xlink:href="#SVGID_11_"  overflow="visible"/>
				</clipPath>
				<path clip-path="url(#SVGID_12_)" fill="#FFFFFF" d="M10.506,15.345c0,0,0.146-0.402,0.317-0.771
					c2.761-5.942,6.308-9.854,7.876-11.636c1.275-1.438,0.775-1.208,0.214-0.845c-2.303,1.495-6.605,6.303-8.25,7.97
					c-0.302,0.307-0.995,1.03-1.151,1.03c-0.173,0-0.76-0.27-1.099-0.468c-1.281-0.75-2.511-1.489-3.281-1.766
					C3.49,8.271,3.954,8.833,4.048,9.021c0.292,0.583,4.255,3.761,5.567,5.26C10.021,14.745,10.506,15.345,10.506,15.345"/>
			</g>
			<g clip-path="url(#SVGID_6_)">
				<defs>
					<rect id="SVGID_13_" x="2.667" y="1.333" width="17.333" height="16.001"/>
				</defs>
				<clipPath id="SVGID_14_">
					<use xlink:href="#SVGID_13_"  overflow="visible"/>
				</clipPath>
				<path clip-path="url(#SVGID_14_)" fill="none" stroke="#FFFFFF" stroke-width="0.5625" stroke-miterlimit="10" d="
					M10.506,15.345c0,0,0.146-0.402,0.317-0.771c2.761-5.942,6.308-9.854,7.876-11.636c1.275-1.438,0.775-1.208,0.214-0.845
					c-2.303,1.495-6.605,6.303-8.25,7.97c-0.302,0.307-0.995,1.03-1.151,1.03c-0.173,0-0.76-0.27-1.099-0.467
					c-1.281-0.751-2.511-1.49-3.281-1.767C3.49,8.271,3.954,8.833,4.048,9.021c0.292,0.583,4.255,3.761,5.567,5.26
					C10.021,14.745,10.506,15.345,10.506,15.345z"/>
			</g>
		</g>
	</g>
</g>
</svg>
