<?xml version="1.0" encoding="utf-8"?>
<!-- Generator: Adobe Illustrator 15.0.0, SVG Export Plug-In . SVG Version: 6.00 Build 0)  -->
<!DOCTYPE svg PUBLIC "-//W3C//DTD SVG 1.1//EN" "http://www.w3.org/Graphics/SVG/1.1/DTD/svg11.dtd">
<svg version="1.1" id="Ebene_1" xmlns="http://www.w3.org/2000/svg" xmlns:xlink="http://www.w3.org/1999/xlink" x="0px" y="0px"
	 width="20px" height="20px" viewBox="0 0 20 20" enable-background="new 0 0 20 20" xml:space="preserve">
<g>
	<defs>
		<rect id="SVGID_1_" x="0" width="20" height="20"/>
	</defs>
	<clipPath id="SVGID_2_">
		<use xlink:href="#SVGID_1_"  overflow="visible"/>
	</clipPath>
	<g clip-path="url(#SVGID_2_)">
		<defs>
			<rect id="SVGID_3_" x="0" width="20" height="20"/>
		</defs>
		<clipPath id="SVGID_4_">
			<use xlink:href="#SVGID_3_"  overflow="visible"/>
		</clipPath>
		<g clip-path="url(#SVGID_4_)">
			<defs>
				<rect id="SVGID_5_" x="0" width="20" height="20"/>
			</defs>
			<clipPath id="SVGID_6_">
				<use xlink:href="#SVGID_5_"  overflow="visible"/>
			</clipPath>
			<g clip-path="url(#SVGID_6_)">
				<defs>
					<rect id="SVGID_7_" x="2.666" y="4" width="14.667" height="13.333"/>
				</defs>
				<clipPath id="SVGID_8_">
					<use xlink:href="#SVGID_7_"  overflow="visible"/>
				</clipPath>
				<path clip-path="url(#SVGID_8_)" fill="#FFFFFF" d="M8.978,16.135c0,0,0.126-0.337,0.272-0.649
					c2.337-5.038,5.337-8.35,6.67-9.854C17,4.412,16.578,4.599,16.1,4.912c-1.949,1.265-5.589,5.337-6.985,6.75
					c-0.26,0.26-0.844,0.874-0.975,0.874c-0.151,0-0.646-0.229-0.933-0.399c-1.088-0.637-2.124-1.256-2.781-1.491
					c-1.391-0.5-0.994-0.025-0.916,0.13c0.249,0.5,3.604,3.188,4.718,4.464C8.567,15.624,8.978,16.135,8.978,16.135"/>
			</g>
			<g clip-path="url(#SVGID_6_)">
				<defs>
					<rect id="SVGID_9_" x="2.666" y="4" width="14.667" height="13.333"/>
				</defs>
				<clipPath id="SVGID_10_">
					<use xlink:href="#SVGID_9_"  overflow="visible"/>
				</clipPath>
				<path clip-path="url(#SVGID_10_)" fill="none" stroke="#FFFFFF" stroke-width="0.5625" stroke-miterlimit="10" d="M8.978,16.135
					c0,0,0.126-0.337,0.272-0.649c2.337-5.038,5.337-8.35,6.67-9.854C17,4.412,16.578,4.599,16.1,4.912
					c-1.949,1.265-5.589,5.338-6.985,6.75c-0.26,0.26-0.844,0.874-0.975,0.874c-0.151,0-0.646-0.229-0.933-0.399
					c-1.088-0.637-2.124-1.256-2.781-1.491c-1.391-0.5-0.994-0.025-0.916,0.13c0.249,0.5,3.604,3.188,4.718,4.464
					C8.567,15.624,8.978,16.135,8.978,16.135z"/>
			</g>
			<g clip-path="url(#SVGID_6_)">
				<defs>
					<rect id="SVGID_11_" x="2.666" y="2.667" width="14.667" height="13.331"/>
				</defs>
				<clipPath id="SVGID_12_">
					<use xlink:href="#SVGID_11_"  overflow="visible"/>
				</clipPath>
				<path clip-path="url(#SVGID_12_)" fill="#71B73D" d="M8.978,14.932c0,0,0.126-0.338,0.272-0.65
					c2.337-5.036,5.337-8.349,6.67-9.854C17,3.208,16.578,3.402,16.1,3.708c-1.949,1.271-5.589,5.339-6.985,6.75
					c-0.26,0.259-0.844,0.875-0.975,0.875c-0.151,0-0.646-0.23-0.933-0.396c-1.088-0.64-2.124-1.26-2.781-1.495
					c-1.391-0.5-0.994-0.027-0.916,0.136c0.249,0.495,3.604,3.181,4.718,4.458C8.567,14.426,8.978,14.932,8.978,14.932"/>
			</g>
			<g clip-path="url(#SVGID_6_)">
				<defs>
					<rect id="SVGID_13_" x="2.666" y="2.667" width="14.667" height="13.331"/>
				</defs>
				<clipPath id="SVGID_14_">
					<use xlink:href="#SVGID_13_"  overflow="visible"/>
				</clipPath>
				<path clip-path="url(#SVGID_14_)" fill="none" stroke="#71B73D" stroke-width="0.5625" stroke-miterlimit="10" d="M8.978,14.932
					c0,0,0.126-0.338,0.272-0.65c2.337-5.036,5.337-8.349,6.67-9.854C17,3.208,16.578,3.402,16.1,3.708
					c-1.949,1.271-5.589,5.339-6.985,6.75c-0.26,0.259-0.844,0.875-0.975,0.875c-0.151,0-0.646-0.23-0.933-0.396
					c-1.088-0.64-2.124-1.26-2.781-1.495c-1.391-0.5-0.994-0.025-0.916,0.136c0.249,0.495,3.604,3.181,4.718,4.458
					C8.567,14.426,8.978,14.932,8.978,14.932z"/>
			</g>
		</g>
	</g>
</g>
</svg>
