<?xml version="1.0" encoding="utf-8"?>
<!-- Generator: Adobe Illustrator 15.0.0, SVG Export Plug-In . SVG Version: 6.00 Build 0)  -->
<!DOCTYPE svg PUBLIC "-//W3C//DTD SVG 1.1//EN" "http://www.w3.org/Graphics/SVG/1.1/DTD/svg11.dtd">
<svg version="1.1" id="Ebene_1" xmlns="http://www.w3.org/2000/svg" xmlns:xlink="http://www.w3.org/1999/xlink" x="0px" y="0px"
	 width="20px" height="20px" viewBox="0 0 20 20" enable-background="new 0 0 20 20" xml:space="preserve">
<g>
	<defs>
		<rect id="SVGID_1_" width="20" height="20"/>
	</defs>
	<clipPath id="SVGID_2_">
		<use xlink:href="#SVGID_1_"  overflow="visible"/>
	</clipPath>
	<g clip-path="url(#SVGID_2_)">
		<defs>
			<rect id="SVGID_3_" x="-16" y="-14.667" width="48" height="49.334"/>
		</defs>
		<clipPath id="SVGID_4_">
			<use xlink:href="#SVGID_3_"  overflow="visible"/>
		</clipPath>
		<g clip-path="url(#SVGID_4_)">
			<defs>
				<rect id="SVGID_5_" width="20" height="20"/>
			</defs>
			<clipPath id="SVGID_6_">
				<use xlink:href="#SVGID_5_"  overflow="visible"/>
			</clipPath>
			<g clip-path="url(#SVGID_6_)">
				<defs>
					<rect id="SVGID_7_" x="2.667" y="4" width="14.667" height="13.333"/>
				</defs>
				<clipPath id="SVGID_8_">
					<use xlink:href="#SVGID_7_"  overflow="visible"/>
				</clipPath>
				<path clip-path="url(#SVGID_8_)" fill="none" stroke="#FFFFFF" stroke-width="1.5" stroke-miterlimit="10" d="M15.078,10.969
					c0,2.859-2.313,5.172-5.172,5.172c-2.854,0-5.172-2.313-5.172-5.172c0-2.854,2.317-5.171,5.172-5.171
					C12.766,5.797,15.078,8.115,15.078,10.969z"/>
			</g>
		</g>
		<g clip-path="url(#SVGID_4_)">
			<defs>
				<rect id="SVGID_9_" x="-1.333" y="-5.333" width="26.667" height="28"/>
			</defs>
			<clipPath id="SVGID_10_">
				<use xlink:href="#SVGID_9_"  overflow="visible"/>
			</clipPath>
			<g clip-path="url(#SVGID_10_)">
				<defs>
					
						<rect id="SVGID_11_" x="2.013" y="-1.815" transform="matrix(-0.9063 0.4227 -0.4227 -0.9063 26.3587 10.5204)" width="19.999" height="19.994"/>
				</defs>
				<clipPath id="SVGID_12_">
					<use xlink:href="#SVGID_11_"  overflow="visible"/>
				</clipPath>
				<g clip-path="url(#SVGID_12_)">
					<defs>
						<rect id="SVGID_13_" x="5.333" y="2.667" width="4.001" height="4"/>
					</defs>
					<clipPath id="SVGID_14_">
						<use xlink:href="#SVGID_13_"  overflow="visible"/>
					</clipPath>
					
						<rect x="5.537" y="3.925" transform="matrix(-0.906 0.4234 -0.4234 -0.906 15.1044 5.7479)" clip-path="url(#SVGID_14_)" fill="#FFFFFF" width="2.754" height="1.252"/>
				</g>
			</g>
		</g>
		<g clip-path="url(#SVGID_4_)">
			<defs>
				<rect id="SVGID_15_" x="4" y="-13.333" width="28" height="28"/>
			</defs>
			<clipPath id="SVGID_16_">
				<use xlink:href="#SVGID_15_"  overflow="visible"/>
			</clipPath>
			<g clip-path="url(#SVGID_16_)">
				<defs>
					<polygon id="SVGID_17_" points="22.667,14.13 4.541,5.677 13,-12.448 31.125,-3.995 					"/>
				</defs>
				<clipPath id="SVGID_18_">
					<use xlink:href="#SVGID_17_"  overflow="visible"/>
				</clipPath>
				<g clip-path="url(#SVGID_18_)">
					<defs>
						<rect id="SVGID_19_" x="10.666" y="2.667" width="4.001" height="4"/>
					</defs>
					<clipPath id="SVGID_20_">
						<use xlink:href="#SVGID_19_"  overflow="visible"/>
					</clipPath>
					<polygon clip-path="url(#SVGID_20_)" fill="#FFFFFF" points="13.886,5.703 11.391,4.536 11.916,3.407 14.412,4.567 					"/>
				</g>
			</g>
		</g>
		<g clip-path="url(#SVGID_4_)">
			<defs>
				<rect id="SVGID_21_" x="-8" y="-1.333" width="29.334" height="29.333"/>
			</defs>
			<clipPath id="SVGID_22_">
				<use xlink:href="#SVGID_21_"  overflow="visible"/>
			</clipPath>
			<g clip-path="url(#SVGID_22_)">
				<defs>
					
						<rect id="SVGID_23_" x="-3.247" y="3.436" transform="matrix(-0.8196 0.5729 -0.5729 -0.8196 19.9856 20.582)" width="19.998" height="20.002"/>
				</defs>
				<clipPath id="SVGID_24_">
					<use xlink:href="#SVGID_23_"  overflow="visible"/>
				</clipPath>
				<g clip-path="url(#SVGID_24_)">
					<defs>
						<rect id="SVGID_25_" x="12" y="14.667" width="4" height="3.999"/>
					</defs>
					<clipPath id="SVGID_26_">
						<use xlink:href="#SVGID_25_"  overflow="visible"/>
					</clipPath>
					
						<rect x="13.317" y="15.506" transform="matrix(-0.8192 0.5735 -0.5735 -0.8192 34.8532 22.785)" clip-path="url(#SVGID_26_)" fill="#FFFFFF" width="1.037" height="2.76"/>
				</g>
			</g>
		</g>
		<g clip-path="url(#SVGID_4_)">
			<defs>
				<rect id="SVGID_27_" x="-16" y="5.333" width="29.333" height="29.334"/>
			</defs>
			<clipPath id="SVGID_28_">
				<use xlink:href="#SVGID_27_"  overflow="visible"/>
			</clipPath>
			<g clip-path="url(#SVGID_28_)">
				<defs>
					
						<rect id="SVGID_29_" x="-11.247" y="10.223" transform="matrix(0.8197 0.5729 -0.5729 0.8197 11.3598 4.36)" width="20.003" height="19.998"/>
				</defs>
				<clipPath id="SVGID_30_">
					<use xlink:href="#SVGID_29_"  overflow="visible"/>
				</clipPath>
				<g clip-path="url(#SVGID_30_)">
					<defs>
						<rect id="SVGID_31_" x="4" y="14.667" width="4" height="3.999"/>
					</defs>
					<clipPath id="SVGID_32_">
						<use xlink:href="#SVGID_31_"  overflow="visible"/>
					</clipPath>
					
						<rect x="5.469" y="15.5" transform="matrix(0.8194 0.5733 -0.5733 0.8194 10.7585 -0.383)" clip-path="url(#SVGID_32_)" fill="#FFFFFF" width="1.036" height="2.76"/>
				</g>
			</g>
		</g>
		<g clip-path="url(#SVGID_4_)">
			<defs>
				<rect id="SVGID_33_" width="20" height="20"/>
			</defs>
			<clipPath id="SVGID_34_">
				<use xlink:href="#SVGID_33_"  overflow="visible"/>
			</clipPath>
			<g clip-path="url(#SVGID_34_)">
				<defs>
					<rect id="SVGID_35_" x="9.334" y="6.667" width="3.999" height="5.333"/>
				</defs>
				<clipPath id="SVGID_36_">
					<use xlink:href="#SVGID_35_"  overflow="visible"/>
				</clipPath>
				<polyline clip-path="url(#SVGID_36_)" fill="none" stroke="#FFFFFF" stroke-width="0.75" stroke-miterlimit="10" points="
					12.281,10.973 9.906,10.973 9.906,7.224 				"/>
			</g>
			<g clip-path="url(#SVGID_34_)">
				<defs>
					<rect id="SVGID_37_" x="2.667" y="2.667" width="14.667" height="14.667"/>
				</defs>
				<clipPath id="SVGID_38_">
					<use xlink:href="#SVGID_37_"  overflow="visible"/>
				</clipPath>
				<path clip-path="url(#SVGID_38_)" fill="none" stroke="#4473A8" stroke-width="1.5" stroke-miterlimit="10" d="M15.078,9.995
					c0,2.859-2.313,5.172-5.172,5.172c-2.854,0-5.172-2.313-5.172-5.172c0-2.855,2.317-5.171,5.172-5.171
					C12.766,4.823,15.078,7.14,15.078,9.995z"/>
			</g>
		</g>
		<g clip-path="url(#SVGID_4_)">
			<defs>
				<rect id="SVGID_39_" x="-1.333" y="-5.333" width="28" height="28"/>
			</defs>
			<clipPath id="SVGID_40_">
				<use xlink:href="#SVGID_39_"  overflow="visible"/>
			</clipPath>
			<g clip-path="url(#SVGID_40_)">
				<defs>
					
						<rect id="SVGID_41_" x="2.425" y="-1.906" transform="matrix(-0.9062 0.4229 -0.4229 -0.9062 27.1071 10.1742)" width="20" height="20"/>
				</defs>
				<clipPath id="SVGID_42_">
					<use xlink:href="#SVGID_41_"  overflow="visible"/>
				</clipPath>
				<g clip-path="url(#SVGID_42_)">
					<defs>
						<rect id="SVGID_43_" x="5.333" y="1.333" width="4.001" height="4"/>
					</defs>
					<clipPath id="SVGID_44_">
						<use xlink:href="#SVGID_43_"  overflow="visible"/>
					</clipPath>
					
						<rect x="5.538" y="2.948" transform="matrix(-0.9066 0.4221 -0.4221 -0.9066 14.6896 3.8937)" clip-path="url(#SVGID_44_)" fill="#4473A8" width="2.752" height="1.25"/>
				</g>
			</g>
		</g>
		<g clip-path="url(#SVGID_4_)">
			<defs>
				<rect id="SVGID_45_" x="4" y="-14.667" width="28" height="28"/>
			</defs>
			<clipPath id="SVGID_46_">
				<use xlink:href="#SVGID_45_"  overflow="visible"/>
			</clipPath>
			<g clip-path="url(#SVGID_46_)">
				<defs>
					<polygon id="SVGID_47_" points="23.078,12.276 4.959,3.817 13.411,-14.307 31.536,-5.85 					"/>
				</defs>
				<clipPath id="SVGID_48_">
					<use xlink:href="#SVGID_47_"  overflow="visible"/>
				</clipPath>
				<g clip-path="url(#SVGID_48_)">
					<defs>
						<rect id="SVGID_49_" x="10.666" y="1.333" width="4.001" height="4"/>
					</defs>
					<clipPath id="SVGID_50_">
						<use xlink:href="#SVGID_49_"  overflow="visible"/>
					</clipPath>
					<polygon clip-path="url(#SVGID_50_)" fill="#4473A8" points="13.886,4.729 11.391,3.563 11.916,2.432 14.416,3.593 					"/>
				</g>
			</g>
		</g>
		<g clip-path="url(#SVGID_4_)">
			<defs>
				<rect id="SVGID_51_" x="-6.667" y="-1.333" width="28" height="29.333"/>
			</defs>
			<clipPath id="SVGID_52_">
				<use xlink:href="#SVGID_51_"  overflow="visible"/>
			</clipPath>
			<g clip-path="url(#SVGID_52_)">
				<defs>
					<polygon id="SVGID_53_" points="-6.615,10.792 9.781,-0.667 21.234,15.729 4.844,27.188 					"/>
				</defs>
				<clipPath id="SVGID_54_">
					<use xlink:href="#SVGID_53_"  overflow="visible"/>
				</clipPath>
				<g clip-path="url(#SVGID_54_)">
					<defs>
						<rect id="SVGID_55_" x="12" y="13.333" width="4" height="5.333"/>
					</defs>
					<clipPath id="SVGID_56_">
						<use xlink:href="#SVGID_55_"  overflow="visible"/>
					</clipPath>
					
						<rect x="13.317" y="14.532" transform="matrix(-0.8197 0.5728 -0.5728 -0.8197 34.2907 21.0286)" clip-path="url(#SVGID_56_)" fill="#4473A8" width="1.037" height="2.76"/>
				</g>
			</g>
		</g>
		<g clip-path="url(#SVGID_4_)">
			<defs>
				<rect id="SVGID_57_" x="-14.667" y="4" width="28" height="29.333"/>
			</defs>
			<clipPath id="SVGID_58_">
				<use xlink:href="#SVGID_57_"  overflow="visible"/>
			</clipPath>
			<g clip-path="url(#SVGID_58_)">
				<defs>
					
						<rect id="SVGID_59_" x="-10.689" y="8.447" transform="matrix(0.8197 0.5728 -0.5728 0.8197 10.4435 3.7204)" width="20.003" height="20.003"/>
				</defs>
				<clipPath id="SVGID_60_">
					<use xlink:href="#SVGID_59_"  overflow="visible"/>
				</clipPath>
				<g clip-path="url(#SVGID_60_)">
					<defs>
						<rect id="SVGID_61_" x="4" y="13.333" width="4" height="4"/>
					</defs>
					<clipPath id="SVGID_62_">
						<use xlink:href="#SVGID_61_"  overflow="visible"/>
					</clipPath>
					<polygon clip-path="url(#SVGID_62_)" fill="#4473A8" points="5.625,17.333 4.776,16.739 6.354,14.479 7.203,15.067 					"/>
				</g>
			</g>
		</g>
		<g clip-path="url(#SVGID_4_)">
			<defs>
				<rect id="SVGID_63_" width="20" height="20"/>
			</defs>
			<clipPath id="SVGID_64_">
				<use xlink:href="#SVGID_63_"  overflow="visible"/>
			</clipPath>
			<g clip-path="url(#SVGID_64_)">
				<defs>
					<rect id="SVGID_65_" x="9.334" y="5.333" width="3.999" height="5.333"/>
				</defs>
				<clipPath id="SVGID_66_">
					<use xlink:href="#SVGID_65_"  overflow="visible"/>
				</clipPath>
				<polyline clip-path="url(#SVGID_66_)" fill="none" stroke="#4473A8" stroke-width="0.75" stroke-miterlimit="10" points="
					12.281,10 9.906,10 9.906,6.25 				"/>
			</g>
		</g>
	</g>
</g>
</svg>
