<?xml version="1.0" encoding="utf-8"?>
<!-- Generator: Adobe Illustrator 15.0.0, SVG Export Plug-In . SVG Version: 6.00 Build 0)  -->
<!DOCTYPE svg PUBLIC "-//W3C//DTD SVG 1.1//EN" "http://www.w3.org/Graphics/SVG/1.1/DTD/svg11.dtd">
<svg version="1.1" id="Ebene_1" xmlns="http://www.w3.org/2000/svg" xmlns:xlink="http://www.w3.org/1999/xlink" x="0px" y="0px"
	 width="20px" height="20px" viewBox="0 0 20 20" enable-background="new 0 0 20 20" xml:space="preserve">
<g>
	<defs>
		<rect id="SVGID_1_" x="0" width="20" height="20"/>
	</defs>
	<clipPath id="SVGID_2_">
		<use xlink:href="#SVGID_1_"  overflow="visible"/>
	</clipPath>
	<g clip-path="url(#SVGID_2_)">
		<defs>
			<rect id="SVGID_3_" x="0" width="20" height="20"/>
		</defs>
		<clipPath id="SVGID_4_">
			<use xlink:href="#SVGID_3_"  overflow="visible"/>
		</clipPath>
		<g clip-path="url(#SVGID_4_)">
			<defs>
				<rect id="SVGID_5_" x="0" width="20" height="20"/>
			</defs>
			<clipPath id="SVGID_6_">
				<use xlink:href="#SVGID_5_"  overflow="visible"/>
			</clipPath>
			<g clip-path="url(#SVGID_6_)">
				<defs>
					<rect id="SVGID_7_" x="4" y="2.667" width="12" height="16"/>
				</defs>
				<clipPath id="SVGID_8_">
					<use xlink:href="#SVGID_7_"  overflow="visible"/>
				</clipPath>
				
					<line clip-path="url(#SVGID_8_)" fill="none" stroke="#FFFFFF" stroke-width="1.5" stroke-linecap="square" stroke-miterlimit="10" x1="14.053" y1="5.01" x2="5.923" y2="16.619"/>
			</g>
			<g clip-path="url(#SVGID_6_)">
				<defs>
					<rect id="SVGID_9_" x="2.667" y="2.667" width="8" height="6.667"/>
				</defs>
				<clipPath id="SVGID_10_">
					<use xlink:href="#SVGID_9_"  overflow="visible"/>
				</clipPath>
				
					<circle clip-path="url(#SVGID_10_)" fill="none" stroke="#FFFFFF" stroke-width="1.125" stroke-linecap="square" stroke-miterlimit="10" cx="6.787" cy="6.246" r="2.078"/>
			</g>
			<g clip-path="url(#SVGID_6_)">
				<defs>
					<rect id="SVGID_11_" x="9.333" y="12" width="8.001" height="6.666"/>
				</defs>
				<clipPath id="SVGID_12_">
					<use xlink:href="#SVGID_11_"  overflow="visible"/>
				</clipPath>
				
					<path clip-path="url(#SVGID_12_)" fill="none" stroke="#FFFFFF" stroke-width="1.125" stroke-linecap="square" stroke-miterlimit="10" d="
					M15.292,15.422c0,1.146-0.933,2.078-2.078,2.078s-2.078-0.932-2.078-2.078c0-1.145,0.933-2.078,2.078-2.078
					S15.292,14.277,15.292,15.422z"/>
			</g>
			<g clip-path="url(#SVGID_6_)">
				<defs>
					<rect id="SVGID_13_" x="4" y="2.667" width="12" height="14.667"/>
				</defs>
				<clipPath id="SVGID_14_">
					<use xlink:href="#SVGID_13_"  overflow="visible"/>
				</clipPath>
				
					<line clip-path="url(#SVGID_14_)" fill="none" stroke="#B0B0B0" stroke-width="1.5" stroke-linecap="square" stroke-miterlimit="10" x1="14.063" y1="4.193" x2="5.938" y2="15.809"/>
			</g>
			<g clip-path="url(#SVGID_6_)">
				<defs>
					<rect id="SVGID_15_" x="2.667" y="1.333" width="8" height="8"/>
				</defs>
				<clipPath id="SVGID_16_">
					<use xlink:href="#SVGID_15_"  overflow="visible"/>
				</clipPath>
				
					<path clip-path="url(#SVGID_16_)" fill="none" stroke="#B0B0B0" stroke-width="1.125" stroke-linecap="square" stroke-miterlimit="10" d="
					M8.875,5.426c0,1.152-0.927,2.079-2.078,2.079c-1.146,0-2.078-0.926-2.078-2.079c0-1.145,0.932-2.077,2.078-2.077
					C7.948,3.35,8.875,4.281,8.875,5.426z"/>
			</g>
			<g clip-path="url(#SVGID_6_)">
				<defs>
					<rect id="SVGID_17_" x="9.333" y="10.667" width="8.001" height="7.999"/>
				</defs>
				<clipPath id="SVGID_18_">
					<use xlink:href="#SVGID_17_"  overflow="visible"/>
				</clipPath>
				
					<path clip-path="url(#SVGID_18_)" fill="none" stroke="#B0B0B0" stroke-width="1.125" stroke-linecap="square" stroke-miterlimit="10" d="
					M15.302,14.605c0,1.15-0.927,2.076-2.077,2.076c-1.146,0-2.078-0.926-2.078-2.076c0-1.148,0.933-2.08,2.078-2.08
					C14.375,12.525,15.302,13.457,15.302,14.605z"/>
			</g>
		</g>
	</g>
</g>
</svg>
