<?xml version="1.0" encoding="utf-8"?>
<!-- Generator: Adobe Illustrator 15.0.0, SVG Export Plug-In . SVG Version: 6.00 Build 0)  -->
<!DOCTYPE svg PUBLIC "-//W3C//DTD SVG 1.1//EN" "http://www.w3.org/Graphics/SVG/1.1/DTD/svg11.dtd">
<svg version="1.1" id="Ebene_1" xmlns="http://www.w3.org/2000/svg" xmlns:xlink="http://www.w3.org/1999/xlink" x="0px" y="0px"
	 width="20px" height="20px" viewBox="0 0 20 20" enable-background="new 0 0 20 20" xml:space="preserve">
<g>
	<defs>
		<rect id="SVGID_1_" x="0" width="20" height="20"/>
	</defs>
	<clipPath id="SVGID_2_">
		<use xlink:href="#SVGID_1_"  overflow="visible"/>
	</clipPath>
	<g clip-path="url(#SVGID_2_)">
		<defs>
			<rect id="SVGID_3_" x="0" width="20" height="20"/>
		</defs>
		<clipPath id="SVGID_4_">
			<use xlink:href="#SVGID_3_"  overflow="visible"/>
		</clipPath>
		<g clip-path="url(#SVGID_4_)">
			<defs>
				<rect id="SVGID_5_" x="0" width="20" height="20"/>
			</defs>
			<clipPath id="SVGID_6_">
				<use xlink:href="#SVGID_5_"  overflow="visible"/>
			</clipPath>
			<g clip-path="url(#SVGID_6_)">
				<defs>
					<rect id="SVGID_7_" x="0" y="1.333" width="20" height="18.667"/>
				</defs>
				<clipPath id="SVGID_8_">
					<use xlink:href="#SVGID_7_"  overflow="visible"/>
				</clipPath>
				<path clip-path="url(#SVGID_8_)" fill="#FFFFFF" d="M10,14.256c-1.881,0-3.406-1.458-3.406-3.261c0-1.802,1.525-3.26,3.406-3.26
					c1.88,0,3.406,1.458,3.406,3.26C13.406,12.798,11.88,14.256,10,14.256 M17.172,10.995c0-0.536-0.074-1.057-0.193-1.562
					l1.75-1.402L17.046,5.24L14.9,5.995c-0.798-0.714-1.756-1.261-2.828-1.574l-0.385-2.146H8.312L7.927,4.421
					C6.833,4.74,5.854,5.303,5.052,6.036L2.953,5.297L1.271,8.093L3.01,9.483c-0.114,0.486-0.182,0.99-0.182,1.511
					c0,0.558,0.078,1.093,0.208,1.616l-1.765,1.405l1.682,2.796l2.193-0.771c0.781,0.688,1.724,1.218,2.772,1.521l0.395,2.213h3.375
					l0.396-2.213c1.046-0.304,1.978-0.829,2.765-1.521l2.192,0.771l1.688-2.79l-1.766-1.411
					C17.093,12.088,17.172,11.553,17.172,10.995"/>
			</g>
			<g clip-path="url(#SVGID_6_)">
				<defs>
					<rect id="SVGID_9_" x="0" width="20" height="20"/>
				</defs>
				<clipPath id="SVGID_10_">
					<use xlink:href="#SVGID_9_"  overflow="visible"/>
				</clipPath>
				<path clip-path="url(#SVGID_10_)" fill="#8F9090" d="M10,13.229c-1.881,0-3.406-1.458-3.406-3.26
					c0-1.803,1.525-3.261,3.406-3.261c1.88,0,3.406,1.458,3.406,3.261C13.406,11.771,11.88,13.229,10,13.229 M17.172,9.97
					c0-0.537-0.074-1.058-0.193-1.558l1.75-1.401l-1.683-2.797L14.9,4.97c-0.798-0.715-1.756-1.261-2.828-1.569L11.688,1.25H8.312
					L7.927,3.401c-1.094,0.313-2.073,0.875-2.875,1.61l-2.099-0.74L1.271,7.068L3.01,8.458C2.896,8.943,2.828,9.448,2.828,9.97
					c0,0.557,0.078,1.092,0.208,1.614l-1.765,1.405l1.682,2.798l2.193-0.772c0.781,0.694,1.724,1.22,2.772,1.521l0.395,2.213h3.375
					l0.396-2.213c1.046-0.302,1.978-0.827,2.765-1.521l2.192,0.772l1.688-2.792l-1.766-1.411
					C17.093,11.062,17.172,10.527,17.172,9.97"/>
			</g>
		</g>
	</g>
</g>
</svg>
