<svg width="16" height="16" version="1.1" viewbox="0 0 16 16" xmlns="http://www.w3.org/2000/svg"><path d="m4 1c-0.554 0-1 0.446-1 1v2c0 0.554 0.446 1 1 1s1-0.446 1-1v-2c0-0.554-0.446-1-1-1zm8 0c-0.554 0-1 0.446-1 1v2c0 0.554 0.446 1 1 1s1-0.446 1-1v-2c0-0.554-0.446-1-1-1zm-6.5 2v1c0 0.831-0.669 1.5-1.5 1.5s-1.5-0.669-1.5-1.5v-0.9375c-0.8841 0.227-1.5017 1.0247-1.5 1.9375v8c0 1.108 0.892 2 2 2h10c1.108 0 2-0.892 2-2v-8c0.0017-0.9128-0.61588-1.7105-1.5-1.9375v0.9375c0 0.831-0.669 1.5-1.5 1.5s-1.5-0.669-1.5-1.5v-1zm-2.453 4h9.906c0.02644-0.0012 0.0482 0.02056 0.047 0.047v5.906c0.0012 0.02644-0.02056 0.0482-0.047 0.047h-9.906c-0.02644 0.0012-0.048204-0.02056-0.047-0.047v-5.906c-0.0012-0.02644 0.02056-0.048205 0.047-0.047z"/></svg>
