<svg xmlns="http://www.w3.org/2000/svg" viewBox="0 0 16 16" width="16" height="16"><path d="m6.8804 14.444s0.13546-0.3916 0.29505-0.75104c2.5618-5.7886 5.8526-9.6003 7.3076-11.335 1.183-1.401 0.719-1.177 0.199-0.8234-2.137 1.4563-6.1287 6.1399-7.6559 7.7638-0.2793 0.299-0.9223 1.0036-1.067 1.0036-0.1596 0-0.7052-0.263-1.0197-0.4552-1.1895-0.7316-2.3298-1.4514-3.0451-1.7203-1.5226-0.5738-1.0921-0.0263-1.0048 0.1568 0.2709 0.5679 3.9479 3.6637 5.1652 5.1237 0.3767 0.45199 0.82577 1.0365 0.82577 1.0365z" fill="#71B73D" stroke="#71B73D" stroke-miterlimit="10" stroke-width=".535"/></svg>
