<svg width="16" height="16" version="1.1" viewBox="0 0 16 16" xmlns="http://www.w3.org/2000/svg"><path d="m15 4-3 3v-6z"/><path d="m15 12-3 3v-6z"/><path d="m1 3v2c1.8999 0 2.7807 0.4248 3.3418 0.9688 0.1998 0.1937 0.3592 0.433 0.5078 0.6914 0.2256-0.6267 0.5193-1.3219 1.002-2.002-0.0402-0.0419-0.0749-0.0859-0.1172-0.127-0.9861-0.956-2.5111-1.5312-4.7344-1.5312zm7.1504 6.3398c-0.2256 0.6267-0.5193 1.3222-1.002 2.0022 0.0402 0.042 0.0749 0.086 0.1172 0.127 0.9861 0.956 2.5111 1.531 4.7344 1.531v-2c-1.9 0-2.7807-0.425-3.3418-0.969-0.1998-0.1935-0.3592-0.4328-0.5078-0.6912z"/><path d="m1 12c8.2464 0 2.7536-8 11-8" fill="none" stroke="#000" stroke-width="2"/></svg>
