<?xml version="1.0" encoding="utf-8"?><svg width="96" height="96" viewBox="0 0 96 96" xmlns="http://www.w3.org/2000/svg" xmlns:xlink="http://www.w3.org/1999/xlink"><svg height="16" width="16" viewBox="0 0 16 16" id="add" x="16" xmlns="http://www.w3.org/2000/svg"><path d="M9.02 13.98h-2v-5h-5v-2h5v-5h2v5l5-.028V8.98h-5z"/></svg><svg height="16" width="16" version="1.1" viewBox="0 0 16 16" id="all" x="48" y="48" xmlns="http://www.w3.org/2000/svg"><circle stroke-width="2" stroke="#000" cy="8" cx="8" r="6" fill="none"/></svg><svg height="16" width="16" version="1.1" viewBox="0 0 16 16" id="alphabetically" y="16" xmlns="http://www.w3.org/2000/svg"><path d="m8.7428 12.5h-1.9141l-0.76109-2.0444h-3.4819l-0.7196 2.044h-1.8661l3.3939-9h1.8604l3.4885 9zm-3.2392-3.5611-1.2003-3.3393-1.1775 3.3393h2.3778z"/><path d="m8.9212 12.5v-1.6387l4.5763-5.8387h-4.0597v-1.5226h6.3772v1.4123l-4.7719 6.071h4.9569v1.5167h-7.0788z"/></svg><svg version="1.1" viewbox="0 0 16 16" width="16" height="16" viewBox="0 0 16 16" id="calendar" x="16" y="16" xmlns="http://www.w3.org/2000/svg"><path d="m4 1c-0.554 0-1 0.446-1 1v2c0 0.554 0.446 1 1 1s1-0.446 1-1v-2c0-0.554-0.446-1-1-1zm8 0c-0.554 0-1 0.446-1 1v2c0 0.554 0.446 1 1 1s1-0.446 1-1v-2c0-0.554-0.446-1-1-1zm-6.5 2v1c0 0.831-0.669 1.5-1.5 1.5s-1.5-0.669-1.5-1.5v-0.9375c-0.8841 0.227-1.5017 1.0247-1.5 1.9375v8c0 1.108 0.892 2 2 2h10c1.108 0 2-0.892 2-2v-8c0.0017-0.9128-0.61588-1.7105-1.5-1.9375v0.9375c0 0.831-0.669 1.5-1.5 1.5s-1.5-0.669-1.5-1.5v-1zm-2.453 4h9.906c0.02644-0.0012 0.0482 0.02056 0.047 0.047v5.906c0.0012 0.02644-0.02056 0.0482-0.047 0.047h-9.906c-0.02644 0.0012-0.048204-0.02056-0.047-0.047v-5.906c-0.0012-0.02644 0.02056-0.048205 0.047-0.047z"/></svg><svg version="1.1" viewbox="0 0 16 16" width="16" height="16" viewBox="0 0 16 16" id="calendar-due" x="32" xmlns="http://www.w3.org/2000/svg"><path fill="#4574A9" d="m4 1c-0.554 0-1 0.446-1 1v2c0 0.554 0.446 1 1 1s1-0.446 1-1v-2c0-0.554-0.446-1-1-1zm8 0c-0.554 0-1 0.446-1 1v2c0 0.554 0.446 1 1 1s1-0.446 1-1v-2c0-0.554-0.446-1-1-1zm-6.5 2v1c0 0.831-0.669 1.5-1.5 1.5s-1.5-0.669-1.5-1.5v-0.9375c-0.8841 0.227-1.5017 1.0247-1.5 1.9375v8c0 1.108 0.892 2 2 2h10c1.108 0 2-0.892 2-2v-8c0.0017-0.9128-0.61588-1.7105-1.5-1.9375v0.9375c0 0.831-0.669 1.5-1.5 1.5s-1.5-0.669-1.5-1.5v-1zm-2.453 4h9.906c0.02644-0.0012 0.0482 0.02056 0.047 0.047v5.906c0.0012 0.02644-0.02056 0.0482-0.047 0.047h-9.906c-0.02644 0.0012-0.048204-0.02056-0.047-0.047v-5.906c-0.0012-0.02644 0.02056-0.048205 0.047-0.047z"/></svg><svg version="1.1" viewbox="0 0 16 16" width="16" height="16" viewBox="0 0 16 16" id="calendar-overdue" x="32" y="16" xmlns="http://www.w3.org/2000/svg"><path fill="#CE3433" d="m4 1c-0.554 0-1 0.446-1 1v2c0 0.554 0.446 1 1 1s1-0.446 1-1v-2c0-0.554-0.446-1-1-1zm8 0c-0.554 0-1 0.446-1 1v2c0 0.554 0.446 1 1 1s1-0.446 1-1v-2c0-0.554-0.446-1-1-1zm-6.5 2v1c0 0.831-0.669 1.5-1.5 1.5s-1.5-0.669-1.5-1.5v-0.9375c-0.8841 0.227-1.5017 1.0247-1.5 1.9375v8c0 1.108 0.892 2 2 2h10c1.108 0 2-0.892 2-2v-8c0.0017-0.9128-0.61588-1.7105-1.5-1.9375v0.9375c0 0.831-0.669 1.5-1.5 1.5s-1.5-0.669-1.5-1.5v-1zm-2.453 4h9.906c0.02644-0.0012 0.0482 0.02056 0.047 0.047v5.906c0.0012 0.02644-0.02056 0.0482-0.047 0.047h-9.906c-0.02644 0.0012-0.048204-0.02056-0.047-0.047v-5.906c-0.0012-0.02644 0.02056-0.048205 0.047-0.047z"/></svg><svg height="16" viewBox="0 0 16 16" width="16" version="1.1" id="checkmark" y="32" xmlns="http://www.w3.org/2000/svg"><path d="m7.1754 13.693c2.5618-5.7886 5.8526-9.6003 7.3076-11.335 1.183-1.401 0.719-1.177 0.199-0.8234-2.137 1.4563-6.1287 6.1399-7.6559 7.7638-0.2793 0.299-0.9223 1.0036-1.067 1.0036-0.1596 0-0.7052-0.263-1.0197-0.4552-1.1895-0.7316-2.3298-1.4514-3.0451-1.7203-1.5226-0.5738-1.0921-0.0263-1.0048 0.1568 0.2709 0.5679 3.9479 3.6637 5.1652 5.1237 0.66413 0.7746 0.72507 1.2925 1.1207 0.286z" stroke="#000" stroke-miterlimit="10" stroke-width="0.535"/></svg><svg height="16" viewBox="0 0 16 16" width="16" version="1.1" id="checkmark-color" x="16" y="32" xmlns="http://www.w3.org/2000/svg"><path d="m7.1754 13.693c2.5618-5.7886 5.8526-9.6003 7.3076-11.335 1.183-1.401 0.719-1.177 0.199-0.8234-2.137 1.4563-6.1287 6.1399-7.6559 7.7638-0.2793 0.299-0.9223 1.0036-1.067 1.0036-0.1596 0-0.7052-0.263-1.0197-0.4552-1.1895-0.7316-2.3298-1.4514-3.0451-1.7203-1.5226-0.5738-1.0921-0.0263-1.0048 0.1568 0.2709 0.5679 3.9479 3.6637 5.1652 5.1237 0.66413 0.7746 0.72507 1.2925 1.1207 0.286z" stroke="#71b73d" stroke-miterlimit="10" stroke-width="0.535" fill="#71b73d"/></svg><svg width="16" viewBox="0 0 16 16" version="1.1" height="16" id="clock" x="32" y="32" xmlns="http://www.w3.org/2000/svg"><g stroke="#000" stroke-width="1.5" fill="none"><circle cy="8" cx="8" r="5"/><path d="m5.1005 12.027-1.5 2.5981"/><path d="m10.9 12.027 1.5 2.5981"/><path d="m4.9731 1.6495-2.5981 1.5"/><path d="m11.027 1.6495 2.5981 1.5"/><path d="m8 5v3h2"/></g></svg><svg width="16" viewBox="0 0 16 16" version="1.1" height="16" id="clock-due" x="48" xmlns="http://www.w3.org/2000/svg"><g stroke="#4574A9" stroke-width="1.5" fill="none"><circle cy="8" cx="8" r="5"/><path d="m5.1005 12.027-1.5 2.5981"/><path d="m10.9 12.027 1.5 2.5981"/><path d="m4.9731 1.6495-2.5981 1.5"/><path d="m11.027 1.6495 2.5981 1.5"/><path d="m8 5v3h2"/></g></svg><svg width="16" viewBox="0 0 16 16" version="1.1" height="16" id="clock-overdue" x="48" y="16" xmlns="http://www.w3.org/2000/svg"><g stroke="#CE3433" stroke-width="1.5" fill="none"><circle cy="8" cx="8" r="5"/><path d="m5.1005 12.027-1.5 2.5981"/><path d="m10.9 12.027 1.5 2.5981"/><path d="m4.9731 1.6495-2.5981 1.5"/><path d="m11.027 1.6495 2.5981 1.5"/><path d="m8 5v3h2"/></g></svg><svg height="16" width="16" version="1.1" viewbox="0 0 16 16" viewBox="0 0 16 16" id="close" x="48" y="32" xmlns="http://www.w3.org/2000/svg"><path d="m12.95 11.536l-1.414 1.414-3.536-3.536-3.535 3.536-1.415-1.414 3.536-3.536-3.536-3.536 1.415-1.414 3.535 3.536 3.516-3.555 1.434 1.434-3.536 3.535z"/></svg><svg viewBox="0 0 16 16" width="16" version="1.1" height="16" id="current" y="48" xmlns="http://www.w3.org/2000/svg"><path d="m1 8h4l1.5-4.0935 3 8.1875 1.5-4.094h4" stroke="#000" stroke-miterlimit="10" stroke-width="2" fill="none"/></svg><svg height="16" width="16" version="1.1" viewBox="0 0 16 16" id="hide" x="16" y="48" xmlns="http://www.w3.org/2000/svg"><g stroke-linejoin="round" stroke="#000" stroke-linecap="round" stroke-width="1.5" fill="none"><path d="m8.7576 14.243 6.4924-6.243-6.4924-6.2427"/><path d="m0.76074 8h14.479"/></g></svg><svg height="16" width="16" version="1.1" viewBox="0 0 16 16" id="manual" x="32" y="48" xmlns="http://www.w3.org/2000/svg"><g stroke-linejoin="round" stroke="#000" stroke-width="1.5" fill="none"><rect y="1.75" width="9.5" height="9.5" x="4.75"/><polyline points="3.5 4.75 1.75 4.75 1.75 7"/><polyline points="1.75 12 1.75 14.25 4 14.25"/><polyline points="9 14.25 11.25 14.25 11.25 13"/><line y1="8" x2="1.75" x1="1.75" y2="11"/><line y1="14.25" x2="8" x1="5" y2="14.25"/></g></svg><svg viewbox="0 0 16 16" height="16" width="16" viewBox="0 0 16 16" id="menu" xmlns="http://www.w3.org/2000/svg"><path d="M2 2v2h12V2zm0 5v2h12V7zm0 5v2h12v-2z"/></svg><svg height="16" width="16" version="1" viewBox="0 0 16 16" id="note" x="64" xmlns="http://www.w3.org/2000/svg"><path style="block-progression:tb;text-transform:none;text-indent:0" d="M2.35 1.002A.45.45 0 0 0 2 1.44V14.56c0 .232.206.44.432.44H13.57a.452.452 0 0 0 .432-.438V4.42a.458.458 0 0 0-.055-.192l-3.312-3.2a.427.427 0 0 0-.135-.026H2.43a.424.424 0 0 0-.08 0zM4 3h6v1H4V3zm0 3h5v1H4V6zm0 3h8v1H4V9zm0 3h4v1H4v-1z" color="#000"/></svg><svg height="16" viewBox="0 0 16 16" width="16" version="1.1" id="percent" x="64" y="16" xmlns="http://www.w3.org/2000/svg"><g stroke-width="1.5" stroke="#000" stroke-linecap="round" fill="none"><circle cy="4" cx="4" r="2.25"/><path d="m11.603 1.7597-7.206 12.481"/><circle cx="12" cy="12" r="2.25"/></g></svg><svg width="16" viewBox="0 0 16 16" version="1.1" height="16" id="random" x="64" y="32" xmlns="http://www.w3.org/2000/svg"><path d="m15 4-3 3v-6z"/><path d="m15 12-3 3v-6z"/><path d="m1 3v2c1.8999 0 2.7807 0.4248 3.3418 0.9688 0.1998 0.1937 0.3592 0.433 0.5078 0.6914 0.2256-0.6267 0.5193-1.3219 1.002-2.002-0.0402-0.0419-0.0749-0.0859-0.1172-0.127-0.9861-0.956-2.5111-1.5312-4.7344-1.5312zm7.1504 6.3398c-0.2256 0.6267-0.5193 1.3222-1.002 2.0022 0.0402 0.042 0.0749 0.086 0.1172 0.127 0.9861 0.956 2.5111 1.531 4.7344 1.531v-2c-1.9 0-2.7807-0.425-3.3418-0.969-0.1998-0.1935-0.3592-0.4328-0.5078-0.6912z"/><path stroke="#000" stroke-width="2" d="m1 12c8.2464 0 2.7536-8 11-8" fill="none"/></svg><svg height="16" width="16" viewBox="0 0 16 16" id="settings" x="64" y="48" xmlns="http://www.w3.org/2000/svg"><path d="M6.938 0A.43.43 0 0 0 6.5.438v1.25a5.818 5.818 0 0 0-1.53.656l-.907-.906a.436.436 0 0 0-.625 0l-1.5 1.5a.436.436 0 0 0 0 .624l.906.907c-.285.48-.514.976-.656 1.53H.938a.43.43 0 0 0-.438.438v2.125C.5 8.81.69 9 .938 9h1.25a5.82 5.82 0 0 0 .656 1.53l-.907.908a.436.436 0 0 0 0 .625l1.5 1.5c.176.176.45.176.625 0l.907-.907c.48.285.976.514 1.53.656v1.25c0 .25.19.438.437.438h2.125a.43.43 0 0 0 .438-.438v-1.25a5.82 5.82 0 0 0 1.53-.657l.907.907c.176.175.45.175.625 0l1.5-1.5a.436.436 0 0 0 0-.625l-.906-.906A5.79 5.79 0 0 0 13.812 9h1.25a.43.43 0 0 0 .438-.438V6.437A.43.43 0 0 0 15.062 6h-1.25a5.79 5.79 0 0 0-.656-1.532l.906-.906a.436.436 0 0 0 0-.625l-1.5-1.5a.436.436 0 0 0-.625 0l-.906.906a5.816 5.816 0 0 0-1.53-.656V.437A.43.43 0 0 0 9.063 0zM8 4.157a3.344 3.344 0 0 1 0 6.686 3.344 3.344 0 0 1 0-6.686z"/></svg><svg height="16" width="16" viewBox="0 0 16 16" id="sort-down" y="64" xmlns="http://www.w3.org/2000/svg"><path style="block-progression:tb;text-transform:none;text-indent:0" d="M4 6l4 4 4-3.994z" color="#000"/></svg><svg height="16" width="16" viewBox="0 0 16 16" id="sort-up" x="16" y="64" xmlns="http://www.w3.org/2000/svg"><path style="block-progression:tb;text-transform:none;text-indent:0" d="M12 10L8 6 4 9.994z" color="#000"/></svg><svg viewBox="0 0 16 16" height="16" width="16" version="1.1" id="star" x="32" y="64" xmlns="http://www.w3.org/2000/svg"><path d="m8 0.2 2.2 5.5 5.8 0.4-4.5 3.7 1.5 5.7-5-3.1-5 3.1 1.5-5.7-4.5-3.7 5.8-0.4z"/></svg><svg viewBox="0 0 16 16" height="16" width="16" version="1.1" id="star-high" x="48" y="64" xmlns="http://www.w3.org/2000/svg"><path fill="#CE3433" d="m8 0.2 2.2 5.5 5.8 0.4-4.5 3.7 1.5 5.7-5-3.1-5 3.1 1.5-5.7-4.5-3.7 5.8-0.4z"/></svg><svg viewBox="0 0 16 16" height="16" width="16" version="1.1" id="star-low" x="64" y="64" xmlns="http://www.w3.org/2000/svg"><path fill="#4574A9" d="m8 0.2 2.2 5.5 5.8 0.4-4.5 3.7 1.5 5.7-5-3.1-5 3.1 1.5-5.7-4.5-3.7 5.8-0.4z"/></svg><svg viewBox="0 0 16 16" height="16" width="16" version="1.1" id="star-medium" x="80" xmlns="http://www.w3.org/2000/svg"><path fill="#FFCC0C" d="m8 0.2 2.2 5.5 5.8 0.4-4.5 3.7 1.5 5.7-5-3.1-5 3.1 1.5-5.7-4.5-3.7 5.8-0.4z"/></svg><svg viewbox="0 0 16 16" height="16" width="16" version="1.1" viewBox="0 0 16 16" id="subtasks-hidden" x="80" y="16" xmlns="http://www.w3.org/2000/svg"><path d="m2 2v2h12v-2z"/><path opacity=".5" d="m6 7v2h8v-2zm4 5v2h4v-2z"/></svg><svg viewbox="0 0 16 16" height="16" width="16" version="1.1" viewBox="0 0 16 16" id="subtasks-visible" x="80" y="32" xmlns="http://www.w3.org/2000/svg"><path d="m2 2v2h12v-2zm4 5v2h8v-2zm4 5v2h4v-2z"/></svg><svg viewBox="0 0 16 16" width="16" height="16" id="tag" x="80" y="48" xmlns="http://www.w3.org/2000/svg"><path d="m1.3594 1c-0.2723 0-0.3584 0.2237-0.3594 0.3594v4.791l8.7012 8.7016c0.1946 0.197 0.5048 0.197 0.6988 0l4.454-4.452c0.197-0.194 0.196-0.5051 0-0.7008l-8.7036-8.6992h-4.791zm2.4648 1.5a1.325 1.325 0 0 1 1.3262 1.3242 1.325 1.325 0 0 1 -1.3262 1.3262 1.325 1.325 0 0 1 -1.3242 -1.3262 1.325 1.325 0 0 1 1.3242 -1.3242z"/></svg><svg height="16" viewBox="0 0 16 16" width="16" id="toggle" x="80" y="64" xmlns="http://www.w3.org/2000/svg"><path d="M8 3C4.89 3 2.073 4.72 0 7.5 2.073 10.28 4.89 12 8 12c3.11 0 5.927-1.72 8-4.5C13.927 4.72 11.11 3 8 3zm0 1.5a3 3 0 1 1 0 6 3 3 0 0 1 0-6zM8 6a1.5 1.5 0 1 0 0 3 1.5 1.5 0 0 0 0-3z"/></svg><svg height="16" width="16" viewBox="0 0 16 16" id="trash" y="80" xmlns="http://www.w3.org/2000/svg"><path d="M6.5 1L6 2H3c-.554 0-1 .446-1 1v1h12V3c0-.554-.446-1-1-1h-3l-.5-1zM3 5l.875 9c.06.55.573 1 1.125 1h6c.552 0 1.064-.45 1.125-1L13 5z" fill-rule="evenodd"/></svg></svg>