<?xml version="1.0" encoding="utf-8"?><svg width="64" height="48" viewBox="0 0 64 48" xmlns="http://www.w3.org/2000/svg" xmlns:xlink="http://www.w3.org/1999/xlink"><svg width="16" height="16" version="1.1" viewbox="0 0 16 16" viewBox="0 0 16 16" id="calendar-due" xmlns="http://www.w3.org/2000/svg"><path d="m4 1c-0.554 0-1 0.446-1 1v2c0 0.554 0.446 1 1 1s1-0.446 1-1v-2c0-0.554-0.446-1-1-1zm8 0c-0.554 0-1 0.446-1 1v2c0 0.554 0.446 1 1 1s1-0.446 1-1v-2c0-0.554-0.446-1-1-1zm-6.5 2v1c0 0.831-0.669 1.5-1.5 1.5s-1.5-0.669-1.5-1.5v-0.9375c-0.8841 0.227-1.5017 1.0247-1.5 1.9375v8c0 1.108 0.892 2 2 2h10c1.108 0 2-0.892 2-2v-8c0.0017-0.9128-0.61588-1.7105-1.5-1.9375v0.9375c0 0.831-0.669 1.5-1.5 1.5s-1.5-0.669-1.5-1.5v-1zm-2.453 4h9.906c0.02644-0.0012 0.0482 0.02056 0.047 0.047v5.906c0.0012 0.02644-0.02056 0.0482-0.047 0.047h-9.906c-0.02644 0.0012-0.048204-0.02056-0.047-0.047v-5.906c-0.0012-0.02644 0.02056-0.048205 0.047-0.047z" fill="#4574A9"/></svg><svg width="16" height="16" version="1.1" viewbox="0 0 16 16" viewBox="0 0 16 16" id="calendar-overdue" x="16" xmlns="http://www.w3.org/2000/svg"><path d="m4 1c-0.554 0-1 0.446-1 1v2c0 0.554 0.446 1 1 1s1-0.446 1-1v-2c0-0.554-0.446-1-1-1zm8 0c-0.554 0-1 0.446-1 1v2c0 0.554 0.446 1 1 1s1-0.446 1-1v-2c0-0.554-0.446-1-1-1zm-6.5 2v1c0 0.831-0.669 1.5-1.5 1.5s-1.5-0.669-1.5-1.5v-0.9375c-0.8841 0.227-1.5017 1.0247-1.5 1.9375v8c0 1.108 0.892 2 2 2h10c1.108 0 2-0.892 2-2v-8c0.0017-0.9128-0.61588-1.7105-1.5-1.9375v0.9375c0 0.831-0.669 1.5-1.5 1.5s-1.5-0.669-1.5-1.5v-1zm-2.453 4h9.906c0.02644-0.0012 0.0482 0.02056 0.047 0.047v5.906c0.0012 0.02644-0.02056 0.0482-0.047 0.047h-9.906c-0.02644 0.0012-0.048204-0.02056-0.047-0.047v-5.906c-0.0012-0.02644 0.02056-0.048205 0.047-0.047z" fill="#CE3433"/></svg><svg width="16" height="16" version="1.1" viewBox="0 0 16 16" id="checkmark-color" y="16" xmlns="http://www.w3.org/2000/svg"><path d="m7.1754 13.693c2.5618-5.7886 5.8526-9.6003 7.3076-11.335 1.183-1.401 0.719-1.177 0.199-0.8234-2.137 1.4563-6.1287 6.1399-7.6559 7.7638-0.2793 0.299-0.9223 1.0036-1.067 1.0036-0.1596 0-0.7052-0.263-1.0197-0.4552-1.1895-0.7316-2.3298-1.4514-3.0451-1.7203-1.5226-0.5738-1.0921-0.0263-1.0048 0.1568 0.2709 0.5679 3.9479 3.6637 5.1652 5.1237 0.66413 0.7746 0.72507 1.2925 1.1207 0.286z" fill="#71b73d" stroke="#71b73d" stroke-miterlimit="10" stroke-width=".535"/></svg><svg width="16" height="16" version="1.1" viewBox="0 0 16 16" id="clock-due" x="16" y="16" xmlns="http://www.w3.org/2000/svg"><g fill="none" stroke="#4574A9" stroke-width="1.5"><circle cx="8" cy="8" r="5"/><path d="m5.1005 12.027-1.5 2.5981"/><path d="m10.9 12.027 1.5 2.5981"/><path d="m4.9731 1.6495-2.5981 1.5"/><path d="m11.027 1.6495 2.5981 1.5"/><path d="m8 5v3h2"/></g></svg><svg width="16" height="16" version="1.1" viewBox="0 0 16 16" id="clock-overdue" x="32" xmlns="http://www.w3.org/2000/svg"><g fill="none" stroke="#CE3433" stroke-width="1.5"><circle cx="8" cy="8" r="5"/><path d="m5.1005 12.027-1.5 2.5981"/><path d="m10.9 12.027 1.5 2.5981"/><path d="m4.9731 1.6495-2.5981 1.5"/><path d="m11.027 1.6495 2.5981 1.5"/><path d="m8 5v3h2"/></g></svg><svg width="16" height="16" version="1.1" viewBox="0 0 16 16" id="percent-active" x="32" y="16" xmlns="http://www.w3.org/2000/svg"><g fill="none" stroke="#4574a9" stroke-linecap="round" stroke-width="1.5"><circle cx="4" cy="4" r="2.25" fill="none"/><path d="m11.603 1.7597-7.206 12.481"/><circle cx="12" cy="12" r="2.25"/></g></svg><svg width="16" height="16" version="1.1" viewBox="0 0 16 16" id="tag-active" y="32" xmlns="http://www.w3.org/2000/svg"><path d="m1.3594 1c-0.2723 0-0.3584 0.2237-0.3594 0.3594v4.791l8.7012 8.7016c0.1946 0.197 0.5048 0.197 0.6988 0l4.454-4.452c0.197-0.194 0.196-0.5051 0-0.7008l-8.7036-8.6992h-4.791zm2.4648 1.5a1.325 1.325 0 0 1 1.3262 1.3242 1.325 1.325 0 0 1-1.3262 1.3262 1.325 1.325 0 0 1-1.3242-1.3262 1.325 1.325 0 0 1 1.3242-1.3242z" fill="#4574a9"/></svg><svg width="16" height="16" version="1.1" viewBox="0 0 16 16" id="task-star-high" x="16" y="32" xmlns="http://www.w3.org/2000/svg"><path d="m8 0.2 2.2 5.5 5.8 0.4-4.5 3.7 1.5 5.7-5-3.1-5 3.1 1.5-5.7-4.5-3.7 5.8-0.4z" fill="#CE3433"/></svg><svg width="16" height="16" version="1.1" viewBox="0 0 16 16" id="task-star-low" x="32" y="32" xmlns="http://www.w3.org/2000/svg"><path d="m8 0.2 2.2 5.5 5.8 0.4-4.5 3.7 1.5 5.7-5-3.1-5 3.1 1.5-5.7-4.5-3.7 5.8-0.4z" fill="#4574A9"/></svg><svg width="16" height="16" version="1.1" viewBox="0 0 16 16" id="task-star-medium" x="48" xmlns="http://www.w3.org/2000/svg"><path d="m8 0.2 2.2 5.5 5.8 0.4-4.5 3.7 1.5 5.7-5-3.1-5 3.1 1.5-5.7-4.5-3.7 5.8-0.4z" fill="#FFCC0C"/></svg></svg>