<svg width="32" height="16" version="1.1" viewbox="0 0 16 16" xmlns="http://www.w3.org/2000/svg"><path d="m12 1c-0.554 0-1 0.446-1 1v2c0 0.554 0.446 1 1 1s1-0.446 1-1v-2c0-0.554-0.446-1-1-1zm8 0c-0.554 0-1 0.446-1 1v2c0 0.554 0.446 1 1 1s1-0.446 1-1v-2c0-0.554-0.446-1-1-1zm-6.5 2v1c0 0.831-0.669 1.5-1.5 1.5s-1.5-0.669-1.5-1.5v-0.9375c-0.8841 0.227-1.5017 1.0247-1.5 1.9375v8c0 1.108 0.892 2 2 2h10c1.108 0 2-0.892 2-2v-2.5l-2 1.5v0.95312c0.0012 0.02644-0.02043 0.04808-0.04687 0.04687h-9.9062c-0.02644 0.0012-0.04808-0.02044-0.04687-0.04687v-5.9062c-0.00121-0.02644 0.020425-0.04808 0.046865-0.046875h9.9062c0.02644-0.0012 0.04808 0.020435 0.04687 0.046875v0.95312l2 1.5v-4.5c0.0017-0.9128-0.61588-1.7105-1.5-1.9375v0.9375c0 0.831-0.669 1.5-1.5 1.5s-1.5-0.669-1.5-1.5v-1z"/><path d="m19 7v1.5h-3v3h3v1.5l4-3z" fill="#070000" style="paint-order:normal"/><path d="m24 6 4 4 4-3.994z" style="text-indent:0;text-transform:none"/></svg>
