<?xml version="1.0" encoding="UTF-8" standalone="no"?>
<svg width="32px" height="32px" enable-background="new 0 0 32 32" version="1.1" viewBox="0 0 32 32" xml:space="preserve" xmlns="http://www.w3.org/2000/svg">
<path d="m14.383 26.764s0.259-0.716 0.563-1.367c4.908-10.57 11.212-17.53 14.008-20.69 2.264-2.559 1.378-2.156 0.375-1.503-4.09 2.659-11.742 11.206-14.668 14.169-0.542 0.545-1.769 1.833-2.045 1.833-0.313 0-1.358-0.481-1.955-0.833-2.282-1.338-4.464-2.643-5.834-3.136-2.917-1.049-2.092-0.052-1.926 0.281 0.521 1.042 7.566 6.689 9.899 9.356 0.722 0.824 1.583 1.89 1.583 1.89z" fill="#fff" stroke="#fff" stroke-miterlimit="10" stroke-width=".75"/>
</svg>
